#N canvas 0 22 1596 795 10;
#X floatatom 135 165 5 0 0 0 - - -;
#X obj 177 780 dac~;
#X obj 137 221 bancoOsc;
#X obj 615 223 bancoLFO;
#X obj 355 223 bancoOsc_FM;
#X obj 618 160 hsl 128 15 0 5000 0 0 empty empty empty -2 -8 0 10 -262144
-1 -1 0 1;
#X text 755 156 Frecuencia central;
#X obj 606 567 bancoLFO;
#X obj 609 504 hsl 128 15 0 5000 0 0 empty empty empty -2 -8 0 10 -262144
-1 -1 900 1;
#X text 746 500 Frecuencia central;
#X obj 273 554 +~;
#X obj 275 788 vcf~;
#X floatatom 293 739 5 0 0 0 - - -;
#X obj 126 29 key;
#X obj 124 66 keyboardhelp;
#X obj 135 135 mtof;
#X text 168 135 Midi to frequency;
#X obj 927 708 line;
#X obj 174 697 *~;
#X msg 924 463 duration \$1;
#X obj 365 113 bng 15 250 50 0 empty empty empty 17 7 0 10 -262144
-1 -1;
#X obj 366 153 send myEnv;
#X obj 1052 462 receive myEnv;
#X obj 924 349 loadbang;
#X obj 925 510 envgen 200 140 1 0  ;
#X text 1144 544 este objeto se llama = envgen;
#X floatatom 925 417 5 0 0 0 - - -;
#X obj 135 98 + 48;
#X msg 927 386 500;
#X msg 294 708 4;
#X obj 292 657 loadbang;
#X connect 0 0 2 0;
#X connect 0 0 4 0;
#X connect 2 0 10 0;
#X connect 3 0 4 1;
#X connect 4 0 10 1;
#X connect 5 0 3 0;
#X connect 7 0 11 1;
#X connect 8 0 7 0;
#X connect 10 0 11 0;
#X connect 11 0 18 0;
#X connect 12 0 11 2;
#X connect 13 0 14 0;
#X connect 14 0 20 0;
#X connect 14 0 27 0;
#X connect 14 1 27 1;
#X connect 15 0 0 0;
#X connect 17 0 18 1;
#X connect 18 0 1 0;
#X connect 18 0 1 1;
#X connect 19 0 24 0;
#X connect 20 0 21 0;
#X connect 22 0 24 0;
#X connect 23 0 28 0;
#X connect 24 0 17 0;
#X connect 26 0 19 0;
#X connect 27 0 15 0;
#X connect 28 0 26 0;
#X connect 29 0 12 0;
#X connect 30 0 29 0;
