#N canvas 0 0 1906 976 10;
#X obj 475 -8750 hidin;
#X obj 509 -8714 print DEVICES;
#X msg 472 -8793 bang;
#X obj 536 -8796 tgl 15 0 empty empty empty 17 7 0 10 -262144 -1 -1
1 1;
#X msg 580 -8791 close;
#X obj 364 -8715 route 1 2 3 4 5 14 15;
#X obj 329 -8641 print;
#X text 218 -8672 y_axis_left;
#X obj 411 -8661 print;
#X text 336 -8511 x_axis_left;
#X obj 310 -8555 vsl 15 128 0 255 0 0 empty empty empty 0 -9 0 10 -262144
-1 -1 6325 1;
#X obj 297 -8670 expr ($f1-255)*-1;
#X obj 256 -8494 hsl 128 15 0 255 0 0 empty empty empty -2 -8 0 10
-262144 -1 -1 6375 1;
#X text 486 -8665 y_axis_left;
#X text 576 -8508 x_axis_left;
#X obj 550 -8552 vsl 15 128 0 255 0 0 empty empty empty 0 -9 0 10 -262144
-1 -1 6325 1;
#X obj 563 -8665 expr ($f1-255)*-1;
#X obj 496 -8491 hsl 128 15 0 255 0 0 empty empty empty -2 -8 0 10
-262144 -1 -1 6375 1;
#X obj 43 -8473 tgl 15 0 empty empty empty 17 7 0 10 -262144 -1 -1
0 1;
#X obj 185 -8596 route 15;
#X obj 93 -8595 route 6 0 2 4;
#X obj 135 -8523 tgl 15 0 empty empty empty 17 7 0 10 -262144 -1 -1
0 1;
#X obj 200 -8467 tgl 15 0 empty empty empty 17 7 0 10 -262144 -1 -1
0 1;
#X obj 127 -8419 tgl 15 0 empty empty empty 17 7 0 10 -262144 -1 -1
0 1;
#X msg 170 -8565 0;
#X obj 805 -8347 symbol;
#X obj 1160 -7797 dac~;
#X obj 1165 -7834 +~;
#X text 759 -8405 SONIDOS AMBIENTALES;
#X msg 805 -8380 samples/ambientales;
#X obj 847 -8316 makefilename %s/arroyo_peque.wav;
#X obj 846 -8288 makefilename %s/campanas_de_viento.wav;
#X obj 846 -8260 makefilename %s/lluvia.wav;
#X obj 845 -8231 makefilename %s/relampagos.wav;
#X obj 845 -8203 makefilename %s/viento_en_arboles.wav;
#X msg 398 -8791 open 6;
#X obj 1378 -8638 sampler2;
#X obj 112 -8523 bng 15 250 50 0 empty empty empty 17 7 0 10 -262144
-1 -1;
#X obj 987 -8395 loadbang;
#X obj 106 -8419 bng 15 250 50 0 empty empty empty 17 7 0 10 -262144
-1 -1;
#X obj 253 -8347 expr $f1/255;
#X obj 181 -8467 bng 15 250 50 0 empty empty empty 17 7 0 10 -262144
-1 -1;
#X obj 23 -8473 bng 15 250 50 0 empty empty empty 17 7 0 10 -262144
-1 -1;
#X obj 296 -8738 print;
#X obj 463 -8556 bng 15 250 50 0 empty empty empty 17 7 0 10 -262144
-1 -1;
#X obj 396 -8556 bng 15 250 50 0 empty empty empty 17 7 0 10 -262144
-1 -1;
#X obj 395 -8580 route 1;
#X obj 463 -8581 route 1;
#X obj 492 -8347 expr ($f1/255)*2;
#X obj 798 -8120 symbol;
#X text 752 -8178 SONIDOS DIALOGOS;
#X msg 798 -8153 samples/dialogos;
#X obj 839 -8091 makefilename %s/alien.wav;
#X obj 839 -8061 makefilename %s/alien2.wav;
#X obj 839 -8033 makefilename %s/alien3.wav;
#X obj 838 -8004 makefilename %s/babosa.wav;
#X obj 838 -7976 makefilename %s/robot.wav;
#X obj 801 -7892 symbol;
#X text 755 -7950 SONIDOS EFFECTS;
#X msg 801 -7925 samples/effects;
#X obj 842 -7863 makefilename %s/bass.wav;
#X obj 842 -7833 makefilename %s/explosion.wav;
#X obj 842 -7805 makefilename %s/police.wav;
#X obj 841 -7776 makefilename %s/surprise.wav;
#X obj 841 -7748 makefilename %s/transition.wav;
#X obj 803 -7653 symbol;
#X text 757 -7711 SONIDOS INCIDENTALES;
#X msg 803 -7686 samples/incidentales;
#X obj 844 -7624 makefilename %s/grito.wav;
#X obj 844 -7594 makefilename %s/pasos_en_charcos.wav;
#X obj 843 -7566 makefilename %s/puerta_abriendo.wav;
#X obj 843 -7537 makefilename %s/sword2.wav;
#X obj 843 -7509 makefilename %s/swords.wav;
#X obj 1370 -8098 sampler2;
#X obj 1378 -7539 sampler2;
#X obj 1041 -7054 dac;
#X connect 0 0 43 0;
#X connect 0 0 5 0;
#X connect 0 1 1 0;
#X connect 2 0 0 0;
#X connect 3 0 0 0;
#X connect 4 0 0 0;
#X connect 5 0 6 0;
#X connect 5 0 11 0;
#X connect 5 1 12 0;
#X connect 5 2 16 0;
#X connect 5 3 17 0;
#X connect 5 4 19 0;
#X connect 5 4 20 0;
#X connect 5 5 46 0;
#X connect 5 6 47 0;
#X connect 11 0 10 0;
#X connect 12 0 40 0;
#X connect 16 0 15 0;
#X connect 17 0 48 0;
#X connect 19 0 24 0;
#X connect 20 0 18 0;
#X connect 20 0 42 0;
#X connect 20 1 21 0;
#X connect 20 1 37 0;
#X connect 20 2 22 0;
#X connect 20 2 41 0;
#X connect 20 3 23 0;
#X connect 20 3 39 0;
#X connect 24 0 21 0;
#X connect 24 0 22 0;
#X connect 24 0 23 0;
#X connect 24 0 18 0;
#X connect 25 0 30 0;
#X connect 25 0 31 0;
#X connect 25 0 32 0;
#X connect 25 0 33 0;
#X connect 25 0 34 0;
#X connect 27 0 26 0;
#X connect 27 0 26 1;
#X connect 29 0 25 0;
#X connect 31 0 36 0;
#X connect 35 0 0 0;
#X connect 36 0 27 0;
#X connect 36 0 27 1;
#X connect 37 0 73 4;
#X connect 37 0 36 5;
#X connect 37 0 74 5;
#X connect 38 0 29 0;
#X connect 40 0 36 1;
#X connect 40 0 73 1;
#X connect 40 0 74 1;
#X connect 42 0 74 4;
#X connect 42 0 73 5;
#X connect 42 0 36 5;
#X connect 44 0 36 4;
#X connect 44 0 73 5;
#X connect 44 0 74 5;
#X connect 45 0 36 5;
#X connect 45 0 73 5;
#X connect 45 0 74 5;
#X connect 46 0 45 0;
#X connect 47 0 44 0;
#X connect 48 0 36 2;
#X connect 48 0 73 2;
#X connect 48 0 74 2;
#X connect 49 0 52 0;
#X connect 49 0 53 0;
#X connect 49 0 54 0;
#X connect 49 0 55 0;
#X connect 49 0 56 0;
#X connect 51 0 49 0;
#X connect 52 0 73 0;
#X connect 57 0 60 0;
#X connect 57 0 61 0;
#X connect 57 0 62 0;
#X connect 57 0 63 0;
#X connect 57 0 64 0;
#X connect 59 0 57 0;
#X connect 65 0 68 0;
#X connect 65 0 69 0;
#X connect 65 0 70 0;
#X connect 65 0 71 0;
#X connect 65 0 72 0;
#X connect 67 0 65 0;
#X connect 68 0 74 0;
#X connect 73 0 27 0;
#X connect 73 0 27 1;
#X connect 74 0 27 0;
#X connect 74 0 27 1;
