#N canvas -8 -8 1600 817 10;
#X obj 305 265 triggerSample;
#X obj 303 189 bng 15 250 50 0 empty empty Start 17 7 0 10 -4034 -1
-1;
#X obj 353 189 bng 15 250 50 0 empty empty Stop 17 7 0 10 -258113 -1
-1;
#X obj 319 309 dac~;
#X msg 403 186 samples/03-Bongo_bong.wav;
#X obj 307 441 triggerSample;
#X obj 305 365 bng 15 250 50 0 empty empty Start 17 7 0 10 -4034 -1
-1;
#X obj 355 365 bng 15 250 50 0 empty empty Stop 17 7 0 10 -258113 -1
-1;
#X obj 321 485 dac~;
#X msg 426 363 samples/voice.wav;
#X connect 0 0 3 0;
#X connect 0 0 3 1;
#X connect 1 0 0 0;
#X connect 2 0 0 1;
#X connect 4 0 0 2;
#X connect 5 0 8 0;
#X connect 5 0 8 1;
#X connect 6 0 5 0;
#X connect 7 0 5 1;
#X connect 9 0 5 2;
