#N canvas 166 15 1322 920 12;
#N canvas 0 0 450 300 (subpatch) 0;
#X array \$0-array1 1.38332e+007 float 2;
#X coords 0 1 1.38332e+007 -1 200 140 1 0 0;
#X restore 268 252 graph;
#X obj 645 98 openpanel;
#X obj 136 121 bng 15 250 50 0 empty empty empty 0 -6 0 8 -262144 -1
-1;
#X obj 649 228 soundfiler;
#X obj 649 266 expr 44100 / $f1;
#X floatatom 649 426 5 0 0 0 - - -;
#X obj 649 521 phasor~;
#X obj 269 400 hsl 200 15 0 1 0 0 empty empty empty -2 -6 0 8 -262144
-1 -1 0 1;
#X text 267 423 0;
#X text 467 420 1;
#X obj 692 833 line~;
#X msg 692 807 \$1 20;
#X obj 649 848 *~;
#X obj 650 880 hip~ 5;
#X obj 649 494 *;
#X obj 445 542 hsl 128 15 -2 2 0 0 empty empty empty -2 -6 0 8 -262144
-1 -1 9525 1;
#X text 433 558 -2;
#X text 565 558 2;
#X obj 266 218 hsl 200 15 0 1 0 0 empty empty empty -2 -6 0 8 -262144
-1 -1 19900 1;
#X obj 265 184 hsl 200 15 0 1 0 0 empty empty empty -2 -6 0 8 -262144
-1 -1 0 1;
#X obj 650 622 +~;
#X obj 800 515 -;
#X floatatom 800 481 5 0 0 0 - - -;
#X obj 868 477 t f b;
#X obj 649 702 *~;
#X obj 679 305 expr 1 / $f1;
#X obj 679 356 *;
#X obj 727 666 unsig~ 20;
#X text 261 158 0;
#X text 460 158 1;
#X text 638 15 3.4.2.3. any position;
#X text 159 118 first load sound file;
#X text 183 182 left limit;
#X text 479 215 right limit;
#X text 271 438 slider shows playing position;
#X text 845 512 difference of both (;
#X text 842 531 always calculated \, not;
#X text 841 574 input on the left);
#X text 687 759 volume;
#X text 717 877 DC offset filter;
#X text 1111 894 www.pd-tutorial.com;
#X text 1121 861 Johannes Kreidler;
#X obj 686 394 t b f;
#X obj 650 585 *~;
#X text 838 548 only if there is an;
#X text 441 518 playback speed;
#X obj 851 8 loadbang;
#X obj 847 37 send defaultOptions;
#X obj 1018 33 receive defaultOptions;
#X msg 910 272 1;
#X msg 1020 116 0;
#X msg 1122 113 1;
#X msg 692 780 1;
#X obj 818 749 receive defaultOptions;
#X msg 863 271 0;
#X obj 346 481 bng 25 250 50 0 empty empty Play 30 12 0 15 -4034 -1
-1;
#X obj 424 480 bng 25 250 50 0 empty empty Pause 30 12 0 15 -262130
-1 -1;
#X obj 506 480 bng 25 250 50 0 empty empty 2X 30 12 0 15 -203904 -1
-1;
#X obj 218 481 bng 25 250 50 0 empty empty -2X 30 12 0 15 -203904 -1
-1;
#X obj 288 481 bng 25 250 50 0 empty empty -X 30 12 0 15 -203904 -1
-1;
#X msg 824 274 -1;
#X msg 785 273 -2;
#X msg 950 271 2;
#X obj 650 738 tabread4~ \$0-array1;
#X msg 649 202 read -resize \$1 \$2;
#X obj 644 149 pack s s;
#X obj 736 118 f \$0;
#X floatatom 792 112 5 0 0 0 - - -;
#X obj 733 148 makefilename %d-array1;
#X obj 752 230 expr $f1 > 0;
#X obj 215 223 vsl 25 200 0 1 0 0 empty empty Volumen 0 -9 0 10 -262144
-1 -1 19900 1;
#X obj 651 912 outlet~;
#X obj 110 57 inlet;
#X text 160 137 O pasa el archivo como mensaje por el inlet;
#X obj 183 56 inlet;
#X text 103 534 Inlet description;
#X obj 249 56 inlet;
#X text 105 555 File | Volume | Speed | -x | play | pause | 2x;
#X obj 311 56 inlet;
#X obj 367 54 inlet;
#X obj 415 54 inlet;
#X obj 468 50 inlet;
#X connect 1 0 65 0;
#X connect 2 0 1 0;
#X connect 3 0 4 0;
#X connect 3 0 24 1;
#X connect 3 0 69 0;
#X connect 4 0 26 1;
#X connect 5 0 14 0;
#X connect 6 0 43 0;
#X connect 10 0 12 1;
#X connect 11 0 10 0;
#X connect 12 0 13 0;
#X connect 13 0 71 0;
#X connect 14 0 6 0;
#X connect 15 0 42 0;
#X connect 18 0 22 0;
#X connect 19 0 23 0;
#X connect 20 0 24 0;
#X connect 20 0 27 0;
#X connect 21 0 25 0;
#X connect 21 0 43 1;
#X connect 22 0 21 0;
#X connect 23 0 21 1;
#X connect 23 0 20 1;
#X connect 23 1 22 0;
#X connect 24 0 63 0;
#X connect 25 0 26 0;
#X connect 26 0 5 0;
#X connect 27 0 7 0;
#X connect 42 0 5 0;
#X connect 42 1 14 1;
#X connect 43 0 20 0;
#X connect 46 0 47 0;
#X connect 46 0 66 0;
#X connect 48 0 49 0;
#X connect 48 0 50 0;
#X connect 48 0 51 0;
#X connect 49 0 15 0;
#X connect 50 0 19 0;
#X connect 51 0 18 0;
#X connect 52 0 70 0;
#X connect 53 0 52 0;
#X connect 54 0 15 0;
#X connect 55 0 49 0;
#X connect 56 0 54 0;
#X connect 57 0 62 0;
#X connect 58 0 61 0;
#X connect 59 0 60 0;
#X connect 60 0 15 0;
#X connect 61 0 15 0;
#X connect 62 0 15 0;
#X connect 63 0 12 0;
#X connect 64 0 3 0;
#X connect 65 0 64 0;
#X connect 66 0 67 0;
#X connect 66 0 68 0;
#X connect 68 0 65 1;
#X connect 69 0 18 0;
#X connect 70 0 11 0;
#X connect 72 0 65 0;
#X connect 74 0 70 0;
#X connect 76 0 15 0;
#X connect 78 0 59 0;
#X connect 79 0 55 0;
#X connect 80 0 56 0;
#X connect 81 0 57 0;
#X coords 0 -1 1 1 480 480 1 100 100;
