#N canvas 23 22 1600 817 10;
#X obj 305 265 triggerSample;
#X obj 303 189 bng 15 250 50 0 empty empty Start 17 7 0 10 -4034 -1
-1;
#X obj 353 189 bng 15 250 50 0 empty empty Stop 17 7 0 10 -258113 -1
-1;
#X obj 319 309 dac~;
#X obj 307 441 triggerSample;
#X obj 305 365 bng 15 250 50 0 empty empty Start 17 7 0 10 -4034 -1
-1;
#X obj 355 365 bng 15 250 50 0 empty empty Stop 17 7 0 10 -258113 -1
-1;
#X obj 321 485 dac~;
#X msg 426 363 samples/voice.wav;
#X msg 403 186 samples/03-Bongo_bong.wav;
#X obj 686 377 triggerSample2;
#X obj 685 701 dac~;
#X obj 685 327 r sample1;
#X obj 789 320 r stop;
#X obj 1117 375 triggerSample2;
#X obj 1220 318 r stop;
#X obj 1116 325 r sample2;
#X msg 1329 253 samples/trickle.wav;
#X obj 686 662 *~;
#X obj 917 598 vsl 15 60 0 1 0 0 empty empty empty 0 -9 0 10 -262144
-1 -1 0 1;
#X obj 916 566 r volumen1;
#X obj 1116 701 dac~;
#X obj 1117 662 *~;
#X obj 1363 598 vsl 15 60 0 1 0 0 empty empty empty 0 -9 0 10 -262144
-1 -1 0 1;
#X obj 1363 566 r volumen2;
#X obj 977 724 qlist;
#X obj 929 686 bng 15 250 50 0 empty empty empty 17 7 0 10 -262144
-1 -1;
#X msg 974 681 read mySequence;
#X obj 1554 381 bancoOsc;
#X obj 1567 689 dac~;
#X obj 1568 650 *~;
#X obj 1814 586 vsl 15 60 0 1 0 0 empty empty empty 0 -9 0 10 -262144
-1 -1 0 1;
#X obj 1820 535 r volumen3;
#X obj 1551 296 r notes1;
#X obj 1552 342 mtof;
#X obj 286 772 notein;
#X floatatom 268 814 5 0 0 0 - - -;
#X floatatom 300 867 5 0 0 0 - - -;
#X floatatom 319 814 5 0 0 0 - - -;
#X obj 50 578 ctlin;
#X floatatom 33 624 5 0 0 0 - - -;
#X floatatom 58 658 5 0 0 0 - - -;
#X floatatom 81 626 5 0 0 0 - - -;
#X text 216 813 Nota;
#X text 332 795 Canal midi;
#X text -5 623 Valor;
#X text 97 610 Canal;
#X text 93 1004 Enviar la nota al sintetizador;
#X obj 158 987 s notes1;
#X text 249 888 Velocidad/volumen \, intensidad de presionado;
#X obj 304 937 / 127;
#X obj 305 988 s volumen3;
#X text 365 931 Mapea el volumen entre 0 y 1 para controlar el volumen
del sintetizador;
#X obj 212 571 ctlin 73;
#X text -10 684 N Mensaje / ID de la perilla;
#X obj 213 628 s volumen1;
#X obj 212 598 / 127;
#X text 134 539 Controla perila con identificador 73;
#X obj 451 573 ctlin 116;
#X obj 451 600 sel 127;
#X text 373 541 Controla perila con identificador 116;
#X obj 430 715 sel 127;
#X obj 431 745 s stop;
#X text 352 656 Controla perila con identificador 117;
#X obj 452 630 s sample1;
#X obj 430 688 ctlin 117;
#X msg 898 255 samples/voice.wav;
#X connect 0 0 3 0;
#X connect 0 0 3 1;
#X connect 1 0 0 0;
#X connect 2 0 0 1;
#X connect 4 0 7 0;
#X connect 4 0 7 1;
#X connect 5 0 4 0;
#X connect 6 0 4 1;
#X connect 8 0 4 2;
#X connect 9 0 0 2;
#X connect 10 0 18 0;
#X connect 12 0 10 0;
#X connect 13 0 10 1;
#X connect 14 0 22 0;
#X connect 15 0 14 1;
#X connect 16 0 14 0;
#X connect 17 0 14 2;
#X connect 18 0 11 0;
#X connect 18 0 11 1;
#X connect 19 0 18 1;
#X connect 20 0 19 0;
#X connect 22 0 21 0;
#X connect 22 0 21 1;
#X connect 23 0 22 1;
#X connect 24 0 23 0;
#X connect 26 0 25 0;
#X connect 27 0 25 0;
#X connect 28 0 30 0;
#X connect 30 0 29 0;
#X connect 30 0 29 1;
#X connect 31 0 30 1;
#X connect 32 0 31 0;
#X connect 33 0 34 0;
#X connect 34 0 28 0;
#X connect 35 0 36 0;
#X connect 35 1 37 0;
#X connect 35 2 38 0;
#X connect 36 0 48 0;
#X connect 37 0 50 0;
#X connect 39 0 40 0;
#X connect 39 1 41 0;
#X connect 39 2 42 0;
#X connect 50 0 51 0;
#X connect 53 0 56 0;
#X connect 56 0 55 0;
#X connect 58 0 59 0;
#X connect 59 0 64 0;
#X connect 61 0 62 0;
#X connect 65 0 61 0;
#X connect 66 0 10 2;
