#N canvas 0 0 1600 817 10;
#X obj 305 265 triggerSample;
#X obj 303 189 bng 15 250 50 0 empty empty Start 17 7 0 10 -4034 -1
-1;
#X obj 353 189 bng 15 250 50 0 empty empty Stop 17 7 0 10 -258113 -1
-1;
#X obj 319 309 dac~;
#X obj 307 441 triggerSample;
#X obj 305 365 bng 15 250 50 0 empty empty Start 17 7 0 10 -4034 -1
-1;
#X obj 355 365 bng 15 250 50 0 empty empty Stop 17 7 0 10 -258113 -1
-1;
#X obj 321 485 dac~;
#X msg 426 363 samples/voice.wav;
#X msg 403 186 samples/03-Bongo_bong.wav;
#X obj 686 377 triggerSample2;
#X obj 685 701 dac~;
#X obj 685 327 r sample1;
#X obj 789 320 r stop;
#X obj 1117 375 triggerSample2;
#X obj 1220 318 r stop;
#X obj 1116 325 r sample2;
#X msg 898 255 samples/ambient.wav;
#X msg 1329 253 samples/trickle.wav;
#X obj 686 662 *~;
#X obj 917 598 vsl 15 60 0 1 0 0 empty empty empty 0 -9 0 10 -262144
-1 -1 4720 1;
#X obj 916 566 r volumen1;
#X obj 1116 701 dac~;
#X obj 1117 662 *~;
#X obj 1363 598 vsl 15 60 0 1 0 0 empty empty empty 0 -9 0 10 -262144
-1 -1 4720 1;
#X obj 1363 566 r volumen2;
#X obj 977 724 qlist;
#X obj 929 686 bng 15 250 50 0 empty empty empty 17 7 0 10 -262144
-1 -1;
#X msg 974 681 read mySequence;
#X obj 1554 381 bancoOsc;
#X obj 1567 689 dac~;
#X obj 1568 650 *~;
#X obj 1814 586 vsl 15 60 0 1 0 0 empty empty empty 0 -9 0 10 -262144
-1 -1 0 1;
#X obj 1820 535 r volumen3;
#X obj 1543 293 r notes1;
#X obj 1550 337 mtof;
#X connect 0 0 3 0;
#X connect 0 0 3 1;
#X connect 1 0 0 0;
#X connect 2 0 0 1;
#X connect 4 0 7 0;
#X connect 4 0 7 1;
#X connect 5 0 4 0;
#X connect 6 0 4 1;
#X connect 8 0 4 2;
#X connect 9 0 0 2;
#X connect 10 0 19 0;
#X connect 12 0 10 0;
#X connect 13 0 10 1;
#X connect 14 0 23 0;
#X connect 15 0 14 1;
#X connect 16 0 14 0;
#X connect 17 0 10 2;
#X connect 18 0 14 2;
#X connect 19 0 11 0;
#X connect 19 0 11 1;
#X connect 20 0 19 1;
#X connect 21 0 20 0;
#X connect 23 0 22 0;
#X connect 23 0 22 1;
#X connect 24 0 23 1;
#X connect 25 0 24 0;
#X connect 27 0 26 0;
#X connect 28 0 26 0;
#X connect 29 0 31 0;
#X connect 31 0 30 0;
#X connect 31 0 30 1;
#X connect 32 0 31 1;
#X connect 33 0 32 0;
#X connect 34 0 35 0;
#X connect 35 0 29 0;
