#N canvas 206 74 915 567 10;
#N canvas 0 22 450 278 (subpatch) 0;
#X array \$0-audioTabla 23999 float 0;
#X coords 0 1 23998 -1 200 140 2 0 0;
#X restore 113 206 graph;
#X obj 527 346 soundfiler;
#X msg 485 348 stop;
#X obj 116 159 hsl 195 30 0 0.544195 0 0 empty \$0-rcv empty -2 -8
0 10 -262144 -1 -1 0 1;
#X obj 427 323 *;
#X floatatom 427 300 5 0 0 0 - - -;
#X msg 427 346 1 \$1;
#X obj 693 379 / 44100;
#X msg 527 322 read -resize \$1 \$2;
#X obj 527 381 tabplay~ \$0-audioTabla;
#X obj 527 299 pack s s;
#X obj 527 275 inlet;
#X obj 747 356 f \$0;
#X floatatom 784 357 5 0 0 0 - - -;
#X obj 572 275 makefilename %d-audioTabla;
#X obj 527 412 outlet~;
#X obj 747 331 loadbang;
#X obj 115 125 bng 25 250 50 0 empty empty Start 50 7 0 14 -4034 -1
-1;
#X obj 227 125 bng 25 250 50 0 empty empty Stop 50 7 0 14 -258113 -1
-1;
#X obj 113 73 inlet;
#X obj 225 77 inlet;
#X msg 427 274 44100;
#X obj 484 202 loadbang;
#X obj 485 225 t b b;
#X obj 747 380 makefilename %d-rcv;
#X obj 693 403 pack f s;
#X msg 693 427 \; \$2 range 0 \$1;
#X obj 572 252 f \$0;
#X floatatom 609 253 5 0 0 0 - - -;
#X obj 572 227 loadbang;
#X connect 1 0 7 0;
#X connect 1 0 9 0;
#X connect 2 0 9 0;
#X connect 3 0 4 1;
#X connect 4 0 6 0;
#X connect 5 0 4 0;
#X connect 6 0 9 0;
#X connect 7 0 25 0;
#X connect 8 0 1 0;
#X connect 9 0 15 0;
#X connect 10 0 8 0;
#X connect 11 0 10 0;
#X connect 12 0 13 0;
#X connect 12 0 24 0;
#X connect 14 0 10 1;
#X connect 16 0 12 0;
#X connect 17 0 5 0;
#X connect 18 0 2 0;
#X connect 19 0 17 0;
#X connect 20 0 18 0;
#X connect 21 0 5 0;
#X connect 22 0 23 0;
#X connect 23 0 2 0;
#X connect 23 1 21 0;
#X connect 24 0 25 1;
#X connect 25 0 26 0;
#X connect 27 0 28 0;
#X connect 27 0 14 0;
#X connect 29 0 27 0;
#X coords 0 -1 1 1 220 250 1 100 100;
