#N canvas -8 -8 1600 817 10;
#X obj 137 272 tabplay~ mySample;
#X obj 134 231 soundfiler;
#X msg 134 184 read -resize \$1 mySample;
#X obj 138 332 dac~;
#N canvas 0 0 450 300 (subpatch) 0;
#X array mySample 882000 float 2;
#X coords 0 1 882000 -1 200 140 1;
#X restore 301 214 graph;
#X msg 87 225 bang;
#X msg 89 202 stop;
#X msg 16 256 200000;
#X text -224 258 reproducir desde la muestra 200000;
#X msg 14 310 200000 44100;
#X text -353 304 reproducir desde la muestra 200000 y lea 44100 muestras
mas equivalentes a un segundo en un archivo con frecuencia de muestreo
de 44100;
#X obj -158 172 * 44100;
#X floatatom -158 141 5 0 0 0 - - -;
#X text -279 119 Modo dinamico de decir cuantos segundos de reproduccion
quiero;
#X msg -158 201 44100 \$1;
#X obj 133 146 openpanel;
#X obj 133 107 bng 15 250 50 0 empty empty empty 17 7 0 10 -262144
-1 -1;
#X msg 236 142 samples/03-Bongo_bong.wav;
#X connect 0 0 3 0;
#X connect 0 0 3 1;
#X connect 1 0 0 0;
#X connect 2 0 1 0;
#X connect 5 0 0 0;
#X connect 6 0 0 0;
#X connect 7 0 0 0;
#X connect 9 0 0 0;
#X connect 11 0 14 0;
#X connect 12 0 11 0;
#X connect 14 0 0 0;
#X connect 15 0 2 0;
#X connect 16 0 15 0;
#X connect 17 0 2 0;
