#N canvas 0 0 1596 817 10;
#X obj 358 298 soundfiler;
#N canvas 0 0 450 300 (subpatch) 0;
#X array \$0-mySample 882000 float 2;
#X coords 0 1 882000 -1 200 140 1 0 0;
#X restore 525 281 graph;
#X msg 78 257 bang;
#X msg 164 258 stop;
#X obj 78 116 inlet;
#X obj 162 120 inlet;
#X obj 361 339 tabplay~ \$0-mySample;
#X msg 358 251 read -resize \$1 \$2;
#X obj 364 177 pack s s;
#X obj 365 89 inlet;
#X text 269 66 filename del sample incluyendo ruta;
#X obj 584 95 f \$0;
#X text 680 92 \$0 genera numeros aleatorios y el objeto f almacena
numeros floats que son el unico tipo numerico que existe en pd;
#X floatatom 633 109 5 0 0 0 - - -;
#X obj 584 155 makefilename %d-mySample;
#X obj 583 47 loadbang;
#X obj 357 413 outlet~;
#X connect 0 0 6 0;
#X connect 2 0 6 0;
#X connect 3 0 6 0;
#X connect 4 0 2 0;
#X connect 5 0 3 0;
#X connect 6 0 16 0;
#X connect 7 0 0 0;
#X connect 8 0 7 0;
#X connect 9 0 8 0;
#X connect 11 0 13 0;
#X connect 11 0 14 0;
#X connect 14 0 8 1;
#X connect 15 0 11 0;
